<svg width="50" height="50" viewBox="0 0 50 50" fill="none" xmlns="http://www.w3.org/2000/svg">
<path d="M18.75 0.866631C19.055 1.2373 19.2419 1.69092 19.2865 2.16889C19.3311 2.64686 19.2313 3.12721 19 3.54788C17.1933 6.86499 16.2498 10.5832 16.2563 14.3604C16.2563 26.926 26.5 37.101 39.125 37.101C40.7719 37.101 42.375 36.9291 43.9156 36.601C44.3879 36.4987 44.8798 36.5379 45.33 36.7135C45.7802 36.8891 46.1686 37.1934 46.4469 37.5885C46.7406 37.9993 46.8903 38.4956 46.8728 39.0003C46.8553 39.505 46.6715 39.9897 46.35 40.3791C43.899 43.3899 40.807 45.8157 37.2995 47.4797C33.7919 49.1437 29.9572 50.004 26.075 49.9979C11.6687 49.9979 0 38.3916 0 24.0916C0 13.3291 6.60625 4.09788 16.0125 0.185381C16.4811 -0.0126444 17.0012 -0.0532882 17.4948 0.069555C17.9885 0.192398 18.4289 0.472095 18.75 0.866631Z" fill="black"/>
</svg>
