<svg width="50" height="50" viewBox="0 0 50 50" fill="none" xmlns="http://www.w3.org/2000/svg">
<path d="M16.0312 46.6539L21.5211 41.0289C19.6029 40.6123 17.7756 39.8527 16.1273 38.7867L16.0312 46.6539ZM33.9688 3.34687L28.4805 8.97109C30.3987 9.38799 32.226 10.1478 33.8742 11.2141L33.9688 3.34687ZM8.97188 28.4797L3.34609 33.968L11.2133 33.8727C10.1474 32.2247 9.38802 30.3977 8.97188 28.4797ZM41.0281 21.5211L46.6539 16.0312L38.7867 16.1273C39.8526 17.7756 40.612 19.6028 41.0281 21.5211ZM11.2141 16.1266L3.34687 16.0305L8.97266 21.5203C9.38797 19.6018 10.1474 17.7744 11.2141 16.1266ZM38.7859 33.8734L46.6531 33.9688L41.0273 28.4797C40.6119 30.3982 39.8525 32.2255 38.7859 33.8734ZM21.5211 8.97109L16.0312 3.34609L16.1273 11.2133C17.7756 10.1473 19.6029 9.38771 21.5211 8.97109ZM28.4789 41.0289L33.9688 46.6531L33.8727 38.7867C32.2242 39.8524 30.397 40.6119 28.4789 41.0289ZM11.525 34.3453L8.42578 41.5727L15.6539 38.475C14.0428 37.3551 12.6446 35.9566 11.525 34.3453ZM38.475 15.6555L41.5727 8.42734L34.3461 11.525C35.9572 12.6452 37.3554 14.044 38.475 15.6555ZM8.59375 25C8.59375 24.0016 8.69766 23.0281 8.86875 22.0773L1.5625 24.9992L8.86875 27.9211C8.69017 26.9575 8.59813 25.9799 8.59375 25ZM48.4375 25L41.1312 22.0773C41.3023 23.0281 41.4062 24.0016 41.4062 25C41.4062 25.9992 41.3023 26.9727 41.1312 27.9227L48.4375 25ZM15.6555 11.5242L8.42734 8.42656L11.525 15.6547C12.6456 14.0435 14.0443 12.6448 15.6555 11.5242ZM34.3445 38.475L41.5727 41.5727L38.475 34.3453C37.3546 35.9565 35.9559 37.3549 34.3445 38.475ZM27.9219 8.86875L25 1.5625L22.0781 8.86875C23.0273 8.69766 24.0008 8.59375 25 8.59375C25.9992 8.59375 26.9727 8.69766 27.9219 8.86875ZM22.0781 41.1312L25 48.4375L27.9219 41.1312C26.9727 41.3023 25.9992 41.4062 25 41.4062C24.0008 41.4062 23.0273 41.3023 22.0781 41.1312Z" fill="#ECB800"/>
<path d="M25 39.8438C33.198 39.8438 39.8438 33.198 39.8438 25C39.8438 16.802 33.198 10.1562 25 10.1562C16.802 10.1562 10.1562 16.802 10.1562 25C10.1562 33.198 16.802 39.8438 25 39.8438Z" fill="#ECB800"/>
</svg>
